<?xml version="1.0" encoding="UTF-8"?>
<svg width="64" height="64" viewBox="0 0 64 64" xmlns="http://www.w3.org/2000/svg">
    <title>addspot-action</title>
    <g fill="none" fill-rule="evenodd"><circle fill="#2BA84A" cx="32" cy="32" r="32"/><path d="M32 17c-5.9 0-12 4.5-12 12 0 7.1 10.8 18.2 11.3 18.7.2.2.4.3.7.3.3 0 .5-.1.7-.3C33.2 47.2 44 36.2 44 29c0-7.5-6.1-12-12-12zm4 13h-3v3c0 .6-.4 1-1 1s-1-.4-1-1v-3h-3c-.6 0-1-.4-1-1s.4-1 1-1h3v-3c0-.6.4-1 1-1s1 .4 1 1v3h3c.6 0 1 .4 1 1s-.4 1-1 1z" fill-rule="nonzero" fill="#FFF"/></g></svg>